<mxfile host="app.diagrams.net" agent="Mozilla/5.0 (Windows NT 10.0; Win64; x64) AppleWebKit/537.36 (KHTML, like Gecko) Chrome/140.0.0.0 Safari/537.36" version="28.2.3" pages="2">
  <diagram name="Trang-1" id="1UK4ejUCu3dEF-kebmzN">
    <mxGraphModel dx="1042" dy="562" grid="1" gridSize="10" guides="1" tooltips="1" connect="1" arrows="1" fold="1" page="1" pageScale="1" pageWidth="827" pageHeight="1169" math="0" shadow="0">
      <root>
        <mxCell id="0" />
        <mxCell id="1" parent="0" />
        <mxCell id="AtRrrX9ElUyKdVfHoUD3-4" style="edgeStyle=orthogonalEdgeStyle;rounded=0;orthogonalLoop=1;jettySize=auto;html=1;exitX=0.5;exitY=1;exitDx=0;exitDy=0;entryX=0.5;entryY=0;entryDx=0;entryDy=0;" edge="1" parent="1" source="sS4BiuHikyCp7FAH_7-U-2" target="AtRrrX9ElUyKdVfHoUD3-2">
          <mxGeometry relative="1" as="geometry" />
        </mxCell>
        <mxCell id="sS4BiuHikyCp7FAH_7-U-2" value="bat dau" style="ellipse;whiteSpace=wrap;html=1;fillColor=#e1d5e7;strokeColor=#9673a6;" parent="1" vertex="1">
          <mxGeometry x="330" y="60" width="120" height="80" as="geometry" />
        </mxCell>
        <mxCell id="sS4BiuHikyCp7FAH_7-U-3" value="có" style="shape=parallelogram;perimeter=parallelogramPerimeter;whiteSpace=wrap;html=1;fixedSize=1;fillColor=#d5e8d4;strokeColor=#82b366;" parent="1" vertex="1">
          <mxGeometry x="190" y="475" width="120" height="60" as="geometry" />
        </mxCell>
        <mxCell id="AtRrrX9ElUyKdVfHoUD3-16" style="edgeStyle=orthogonalEdgeStyle;rounded=0;orthogonalLoop=1;jettySize=auto;html=1;exitX=0.5;exitY=1;exitDx=0;exitDy=0;entryX=1;entryY=0.5;entryDx=0;entryDy=0;" edge="1" parent="1" source="sS4BiuHikyCp7FAH_7-U-9" target="sS4BiuHikyCp7FAH_7-U-10">
          <mxGeometry relative="1" as="geometry" />
        </mxCell>
        <mxCell id="sS4BiuHikyCp7FAH_7-U-9" value="không" style="shape=parallelogram;perimeter=parallelogramPerimeter;whiteSpace=wrap;html=1;fixedSize=1;fillColor=#d5e8d4;strokeColor=#82b366;" parent="1" vertex="1">
          <mxGeometry x="480" y="470" width="120" height="70" as="geometry" />
        </mxCell>
        <mxCell id="sS4BiuHikyCp7FAH_7-U-10" value="kết thúc" style="ellipse;whiteSpace=wrap;html=1;fillColor=#e1d5e7;strokeColor=#9673a6;" parent="1" vertex="1">
          <mxGeometry x="325" y="570" width="120" height="80" as="geometry" />
        </mxCell>
        <mxCell id="AtRrrX9ElUyKdVfHoUD3-11" style="edgeStyle=orthogonalEdgeStyle;rounded=0;orthogonalLoop=1;jettySize=auto;html=1;" edge="1" parent="1" source="AtRrrX9ElUyKdVfHoUD3-2">
          <mxGeometry relative="1" as="geometry">
            <mxPoint x="395" y="260" as="targetPoint" />
          </mxGeometry>
        </mxCell>
        <mxCell id="AtRrrX9ElUyKdVfHoUD3-2" value="nhập điểm của sinh viên" style="shape=parallelogram;perimeter=parallelogramPerimeter;whiteSpace=wrap;html=1;fixedSize=1;fillColor=#dae8fc;strokeColor=#6c8ebf;" vertex="1" parent="1">
          <mxGeometry x="330" y="170" width="130" height="60" as="geometry" />
        </mxCell>
        <mxCell id="AtRrrX9ElUyKdVfHoUD3-5" value="hệ thống xử lí, điểm trung bình , xếp loại" style="shape=parallelogram;perimeter=parallelogramPerimeter;whiteSpace=wrap;html=1;fixedSize=1;fillColor=#dae8fc;strokeColor=#6c8ebf;" vertex="1" parent="1">
          <mxGeometry x="325" y="260" width="130" height="60" as="geometry" />
        </mxCell>
        <mxCell id="AtRrrX9ElUyKdVfHoUD3-14" style="edgeStyle=orthogonalEdgeStyle;rounded=0;orthogonalLoop=1;jettySize=auto;html=1;" edge="1" parent="1" source="AtRrrX9ElUyKdVfHoUD3-12" target="sS4BiuHikyCp7FAH_7-U-3">
          <mxGeometry relative="1" as="geometry" />
        </mxCell>
        <mxCell id="AtRrrX9ElUyKdVfHoUD3-15" style="edgeStyle=orthogonalEdgeStyle;rounded=0;orthogonalLoop=1;jettySize=auto;html=1;entryX=0.5;entryY=0;entryDx=0;entryDy=0;" edge="1" parent="1" source="AtRrrX9ElUyKdVfHoUD3-12" target="sS4BiuHikyCp7FAH_7-U-9">
          <mxGeometry relative="1" as="geometry" />
        </mxCell>
        <mxCell id="AtRrrX9ElUyKdVfHoUD3-12" value="điểm hợp lệ ?" style="rhombus;whiteSpace=wrap;html=1;fillColor=#f8cecc;strokeColor=#b85450;" vertex="1" parent="1">
          <mxGeometry x="340" y="350" width="110" height="90" as="geometry" />
        </mxCell>
        <mxCell id="AtRrrX9ElUyKdVfHoUD3-13" style="edgeStyle=orthogonalEdgeStyle;rounded=0;orthogonalLoop=1;jettySize=auto;html=1;" edge="1" parent="1">
          <mxGeometry relative="1" as="geometry">
            <mxPoint x="394.5" y="350" as="targetPoint" />
            <mxPoint x="394.5" y="320" as="sourcePoint" />
          </mxGeometry>
        </mxCell>
        <mxCell id="AtRrrX9ElUyKdVfHoUD3-17" style="edgeStyle=orthogonalEdgeStyle;rounded=0;orthogonalLoop=1;jettySize=auto;html=1;entryX=-0.012;entryY=0.617;entryDx=0;entryDy=0;entryPerimeter=0;" edge="1" parent="1" source="sS4BiuHikyCp7FAH_7-U-3" target="sS4BiuHikyCp7FAH_7-U-10">
          <mxGeometry relative="1" as="geometry">
            <Array as="points">
              <mxPoint x="240" y="619" />
            </Array>
          </mxGeometry>
        </mxCell>
      </root>
    </mxGraphModel>
  </diagram>
  <diagram id="djIKA59dngn2lazarGHI" name="Trang-2">
    <mxGraphModel dx="1042" dy="562" grid="1" gridSize="10" guides="1" tooltips="1" connect="1" arrows="1" fold="1" page="1" pageScale="1" pageWidth="827" pageHeight="1169" math="0" shadow="0">
      <root>
        <mxCell id="0" />
        <mxCell id="1" parent="0" />
      </root>
    </mxGraphModel>
  </diagram>
</mxfile>
